<?xml version="1.0" encoding="UTF-8" standalone="no"?>
<!-- Created with Inkscape (http://www.inkscape.org/) -->

<svg
   width="64.538269"
   height="64.538269"
   viewBox="0 0 17.07575 17.07575"
   version="1.1"
   id="svg1"
   inkscape:version="1.4.1 (93de688d07, 2025-03-30)"
   sodipodi:docname="design.svg"
   xml:space="preserve"
   inkscape:export-filename="vk_cover.png"
   inkscape:export-xdpi="96"
   inkscape:export-ydpi="96"
   xmlns:inkscape="http://www.inkscape.org/namespaces/inkscape"
   xmlns:sodipodi="http://sodipodi.sourceforge.net/DTD/sodipodi-0.dtd"
   xmlns="http://www.w3.org/2000/svg"
   xmlns:svg="http://www.w3.org/2000/svg"><sodipodi:namedview
     id="namedview1"
     pagecolor="#ffffff"
     bordercolor="#cccccc"
     borderopacity="1"
     inkscape:showpageshadow="0"
     inkscape:pageopacity="1"
     inkscape:pagecheckerboard="0"
     inkscape:deskcolor="#d1d1d1"
     inkscape:document-units="mm"
     inkscape:zoom="3.6577689"
     inkscape:cx="493.47021"
     inkscape:cy="110.99662"
     inkscape:window-width="1920"
     inkscape:window-height="1017"
     inkscape:window-x="0"
     inkscape:window-y="35"
     inkscape:window-maximized="1"
     inkscape:current-layer="layer1"
     showguides="true"><inkscape:page
       x="0"
       y="0"
       width="17.07575"
       height="17.07575"
       id="page2"
       margin="0"
       bleed="0" /></sodipodi:namedview><defs
     id="defs1"><inkscape:path-effect
       effect="fillet_chamfer"
       id="path-effect22-6-7-4-5"
       is_visible="true"
       lpeversion="1"
       nodesatellites_param="F,0,0,1,0,14.2875,0,1 @ F,0,0,1,0,14.2875,0,1 @ F,0,0,1,0,14.2875,0,1 @ F,0,0,1,0,14.2875,0,1"
       radius="54"
       unit="px"
       method="auto"
       mode="F"
       chamfer_steps="1"
       flexible="false"
       use_knot_distance="true"
       apply_no_radius="true"
       apply_with_radius="true"
       only_selected="false"
       hide_knots="false" /></defs><g
     inkscape:label="Слой 1"
     inkscape:groupmode="layer"
     id="layer1"
     transform="translate(-192.5427,-16.16107)"><g
       id="g61"><path
         style="fill:#001c42;fill-opacity:1;stroke-width:1.80036"
         id="rect1-5-53-3-5-1-3-0-1"
         width="88.248878"
         height="88.248901"
         x="155.93669"
         y="277.64951"
         inkscape:export-filename="./logo.svg"
         inkscape:export-xdpi="268.38989"
         inkscape:export-ydpi="268.38989"
         inkscape:path-effect="#path-effect22-6-7-4-5"
         sodipodi:type="rect"
         d="m 170.22419,277.64951 h 59.67388 a 14.2875,14.2875 45 0 1 14.2875,14.2875 v 59.6739 a 14.2875,14.2875 135 0 1 -14.2875,14.2875 h -59.67388 a 14.2875,14.2875 45 0 1 -14.2875,-14.2875 v -59.6739 a 14.2875,14.2875 135 0 1 14.2875,-14.2875 z"
         transform="matrix(0.19349533,0,0,0.19349533,162.36967,-37.562812)" /><path
         id="text1-9-8-9-8-5-7-9-7"
         style="font-weight:bold;font-size:6.38998px;line-height:1.25;font-family:Roboto;-inkscape-font-specification:'Roboto Bold';fill:#c0e9ff;fill-opacity:1;stroke-width:0.0316013"
         d="m 196.8244,29.641443 0.66659,-2.376017 h 0.54216 l -0.17479,0.933224 -0.66659,2.272326 h -0.45328 z m -0.33774,-2.376017 0.47699,2.373055 0.0444,0.832495 h -0.53328 l -0.81175,-3.20555 z m 2.15679,2.334541 0.46513,-2.334541 h 0.82657 l -0.81175,3.20555 h -0.53031 z m -0.53623,-2.334541 0.66362,2.358242 0.0918,0.847308 h -0.45625 l -0.66658,-2.269364 -0.16888,-0.936186 z m 3.15814,0 v 3.20555 h -0.85619 v -3.20555 z m -0.90952,-0.835458 q 0,-0.186645 0.13035,-0.308111 0.13036,-0.121468 0.3496,-0.121468 0.21627,0 0.34662,0.121468 0.13331,0.121466 0.13331,0.308111 0,0.186645 -0.13331,0.308112 -0.13035,0.121467 -0.34662,0.121467 -0.21924,0 -0.3496,-0.121467 -0.13035,-0.121467 -0.13035,-0.308112 z m 2.46786,-0.512533 v 4.553541 h -0.85323 v -4.553541 z m 2.0205,1.347991 -1.39243,1.587962 -0.74657,0.755467 -0.31108,-0.616224 0.59253,-0.752505 0.83249,-0.9747 z m -0.88582,3.20555 -0.94803,-1.481308 0.58956,-0.515495 1.34206,1.996803 z m 2.15382,-3.20555 v 3.20555 h -0.85619 v -3.20555 z m -0.90952,-0.835458 q 0,-0.186645 0.13035,-0.308111 0.13036,-0.121468 0.34959,-0.121468 0.21627,0 0.34663,0.121468 0.13332,0.121466 0.13332,0.308111 0,0.186645 -0.13332,0.308112 -0.13036,0.121467 -0.34663,0.121467 -0.21923,0 -0.34959,-0.121467 -0.13035,-0.121467 -0.13035,-0.308112 z m -6.50166,-6.669325 -1.76019,5.365046 h -1.41794 l 2.40471,-6.471837 h 0.90233 z m 1.46239,5.365046 -1.76464,-5.365046 -0.14224,-1.106791 h 0.91121 l 2.41806,6.471837 z m -0.08,-2.409158 v 1.044561 h -3.41816 v -1.044561 z m 3.43594,-4.062679 v 6.471837 h -1.33348 v -6.471837 z m 2.57807,2.764755 v 1.040117 h -2.94255 v -1.040117 z m 0.31115,-2.764755 v 1.044562 h -3.2537 v -1.044562 z" /></g></g></svg>
